<?xml version="1.0" standalone="no"?>
<!DOCTYPE svg PUBLIC "-//W3C//DTD SVG 20010904//EN"
 "http://www.w3.org/TR/2001/REC-SVG-20010904/DTD/svg10.dtd">
<svg version="1.0" xmlns="http://www.w3.org/2000/svg"
 width="500.000000pt" height="500.000000pt" viewBox="0 0 500.000000 500.000000"
 preserveAspectRatio="xMidYMid meet">
<metadata>
Created by potrace 1.11, written by Peter Selinger 2001-2013
</metadata>
<g transform="translate(0.000000,500.000000) scale(0.100000,-0.100000)"
fill="#000000" stroke="none">
<path d="M2084 4922 c-11 -10 -26 -16 -33 -14 -10 3 -12 0 -7 -13 5 -15 4 -16
-9 -5 -12 10 -15 10 -15 0 0 -8 -3 -10 -7 -7 -8 8 -44 -23 -38 -32 2 -4 -5
-12 -15 -19 -17 -10 -18 -9 -13 6 4 13 3 14 -6 6 -7 -6 -13 -21 -14 -33 -1
-11 -6 -21 -12 -21 -5 0 -16 -9 -23 -21 -13 -20 -14 -20 -34 -2 -12 10 -18 12
-14 5 5 -8 -3 -24 -23 -43 -17 -16 -31 -34 -31 -40 0 -5 -3 -8 -7 -6 -5 3 -9
-9 -10 -26 -1 -17 -8 -35 -14 -41 -9 -8 -10 -7 -6 6 4 12 2 15 -8 11 -8 -3
-12 -10 -9 -17 3 -6 -3 -1 -14 12 -11 12 -23 22 -26 22 -7 0 36 -74 46 -78 4
-2 8 -8 8 -13 0 -6 -5 -7 -12 -3 -8 5 -9 0 -6 -14 4 -12 2 -22 -2 -22 -4 0 -6
-9 -3 -20 3 -11 9 -20 15 -20 5 0 3 -10 -3 -22 -12 -22 -11 -22 7 -8 19 14 19
14 1 -7 -11 -12 -27 -20 -38 -18 -13 3 -17 0 -13 -7 5 -8 1 -9 -10 -5 -11 4
-15 3 -11 -4 4 -6 13 -8 21 -5 20 8 17 -10 -3 -20 -10 -4 -20 -7 -23 -6 -3 0
-5 -12 -6 -26 0 -15 -4 -36 -9 -46 -5 -12 -5 -17 1 -14 13 9 14 -84 1 -101 -9
-11 -9 -13 -1 -8 8 4 11 -2 10 -17 0 -13 -4 -22 -7 -20 -3 2 -6 -10 -5 -26 1
-17 4 -30 7 -30 3 0 6 -6 7 -12 0 -7 2 -30 3 -51 1 -21 6 -40 11 -43 4 -3 4
-13 -2 -23 -6 -12 -6 -21 1 -28 5 -5 12 -34 15 -63 3 -30 8 -58 11 -64 4 -6 8
-35 9 -66 1 -30 5 -76 8 -101 4 -42 2 -48 -25 -68 -16 -12 -36 -38 -45 -59
-23 -54 -20 -197 6 -257 8 -18 32 -92 35 -105 1 -3 9 -23 20 -45 10 -22 19
-47 21 -55 2 -8 10 -20 18 -26 9 -6 16 -14 16 -18 0 -12 27 -35 34 -29 3 4 6
1 6 -5 0 -6 12 -17 27 -24 18 -8 28 -22 29 -38 1 -14 5 -38 8 -55 4 -16 8 -40
10 -52 2 -13 9 -30 17 -40 8 -9 9 -14 3 -10 -6 3 -11 0 -11 -8 0 -8 4 -12 9
-9 4 3 9 0 9 -5 2 -13 4 -22 12 -41 7 -19 20 -71 23 -90 1 -8 4 -39 7 -68 4
-29 9 -57 12 -62 3 -5 1 -11 -5 -15 -6 -4 -7 -11 -4 -17 20 -32 5 -178 -18
-178 -4 0 -8 -7 -8 -15 0 -16 -34 -38 -44 -28 -3 3 -6 2 -6 -4 0 -5 -6 -10
-12 -11 -26 -1 -57 -11 -87 -26 -17 -9 -31 -14 -31 -10 0 3 -17 -8 -37 -24
-21 -16 -56 -35 -78 -42 -22 -7 -42 -16 -45 -19 -10 -14 -80 -52 -80 -44 0 4
-4 3 -8 -2 -4 -6 -38 -24 -77 -40 -38 -16 -73 -33 -76 -38 -3 -5 -9 -8 -13 -8
-18 3 -26 0 -40 -15 -9 -9 -24 -17 -34 -19 -9 -2 -18 -4 -19 -5 -2 -2 -6 -3
-10 -4 -5 -1 -24 -9 -43 -18 -66 -31 -115 -51 -122 -50 -5 1 -8 -2 -8 -8 0 -5
-9 -10 -20 -10 -11 0 -20 -5 -20 -11 0 -5 -4 -8 -9 -4 -5 3 -12 1 -16 -5 -3
-5 -15 -10 -25 -10 -10 0 -25 -6 -32 -12 -7 -7 -22 -14 -33 -16 -19 -3 -145
-69 -155 -81 -3 -3 -10 -7 -16 -8 -6 -1 -24 -4 -40 -7 -16 -3 -30 -10 -32 -16
-2 -5 -7 -8 -12 -5 -4 3 -22 -11 -39 -30 -17 -20 -31 -32 -31 -28 0 4 -8 -4
-18 -20 -10 -15 -22 -24 -25 -20 -4 3 -7 2 -7 -4 0 -6 -19 -30 -42 -55 -24
-25 -50 -53 -58 -64 -8 -11 -41 -51 -73 -90 -31 -39 -57 -77 -57 -83 0 -7 -4
-9 -10 -6 -9 5 -15 -23 -11 -47 0 -5 -3 -8 -8 -8 -5 0 -13 -15 -17 -33 -4 -17
-9 -39 -11 -47 -2 -8 -6 -33 -9 -54 -3 -22 -9 -47 -14 -57 -5 -9 -6 -19 -3
-23 3 -3 1 -6 -5 -6 -7 0 -11 -3 -11 -7 1 -5 0 -10 -1 -13 -2 -5 -3 -10 -23
-90 -15 -62 -17 -69 -18 -72 -6 -21 -17 -81 -23 -128 -3 -19 -8 -51 -11 -70
-4 -19 -8 -47 -10 -63 -2 -15 -7 -32 -10 -37 -8 -13 -16 -47 -20 -85 -2 -16
-4 -30 -5 -30 -3 0 -38 -164 -44 -210 -13 -81 -18 -110 -27 -132 -5 -13 -9
-26 -9 -29 0 -2 1114 -4 2475 -4 l2475 0 0 23 c0 13 -3 27 -7 31 -4 3 -8 14
-9 24 -4 30 -10 46 -22 68 -6 12 -9 23 -7 26 3 2 -6 39 -20 82 -14 43 -23 82
-20 86 3 5 1 11 -5 15 -5 3 -10 17 -10 30 0 13 -4 26 -8 29 -5 3 -14 31 -21
63 -11 52 -35 133 -62 218 -6 17 -12 37 -14 45 -2 8 -11 40 -20 70 -9 30 -18
64 -20 75 -3 11 -9 21 -15 23 -6 2 -8 8 -5 13 3 4 -1 22 -10 39 -8 16 -15 32
-15 35 1 3 -9 27 -20 53 -12 26 -22 55 -23 65 -1 9 -5 17 -9 17 -4 0 -7 3 -6
8 4 17 -64 142 -74 136 -7 -4 -8 -2 -4 4 6 11 -30 73 -46 80 -5 2 -8 8 -8 14
0 5 -16 29 -35 52 -19 24 -31 47 -27 51 4 5 2 5 -5 1 -6 -3 -19 4 -28 16 -8
13 -18 22 -21 20 -7 -5 -94 38 -94 47 0 4 -10 8 -22 8 -13 1 -24 7 -26 13 -2
5 -9 10 -16 10 -18 0 -66 24 -66 33 0 4 -4 7 -10 7 -5 0 -44 21 -87 46 -43 25
-107 62 -143 80 -36 19 -78 43 -95 53 -16 10 -33 16 -37 14 -5 -2 -8 0 -8 6 0
11 -56 41 -77 41 -7 0 -13 3 -13 8 0 4 -15 13 -32 21 -18 8 -41 20 -50 28 -9
8 -22 12 -27 8 -6 -3 -11 -2 -11 3 0 4 -19 19 -42 32 -24 13 -49 28 -57 34 -7
5 -19 11 -26 12 -25 4 -81 34 -108 59 -15 14 -27 23 -27 19 0 -3 -6 -2 -12 3
-7 6 -25 13 -39 16 -14 4 -36 16 -50 28 -13 11 -30 24 -38 28 -9 6 -13 26 -11
67 2 67 8 169 10 169 1 0 4 20 6 45 3 25 7 54 9 65 1 11 3 28 4 38 0 11 6 15
13 11 6 -4 8 -3 5 3 -3 5 3 26 13 46 11 20 20 46 20 56 0 11 5 23 11 26 6 4 8
12 6 19 -3 7 1 23 9 37 7 13 13 34 14 47 0 12 3 22 8 22 4 0 8 24 9 53 1 28 2
57 2 62 1 6 15 19 31 29 17 9 28 22 25 27 -4 5 -2 9 3 9 8 0 31 39 38 65 7 24
16 71 17 83 0 6 5 12 10 12 6 0 8 2 5 6 -3 3 1 26 8 52 16 51 20 74 28 139 3
23 6 46 7 50 1 4 0 11 -1 16 -4 10 -7 43 -9 75 -1 30 -36 80 -48 69 -3 -4 -12
1 -18 11 -13 18 -14 50 -2 69 4 6 3 14 -1 17 -10 6 -8 93 1 103 4 3 2 14 -4
24 -7 14 -6 19 2 19 8 0 8 4 2 13 -9 11 -9 21 0 82 2 11 1 25 -2 30 -10 19 -9
35 2 35 8 0 8 3 2 8 -17 12 -21 55 -13 144 1 21 6 38 11 38 4 0 7 16 7 36 0
34 2 36 29 32 23 -3 27 -1 23 14 -3 14 0 17 14 12 17 -5 17 -4 3 8 -9 7 -14
19 -12 26 3 6 0 12 -6 12 -6 0 -8 7 -5 15 4 8 -1 17 -10 21 -9 3 -16 12 -16
20 0 8 -5 14 -11 14 -5 0 -9 8 -7 18 2 11 -4 27 -12 37 -8 11 -10 16 -4 12 16
-9 10 34 -7 47 -19 15 -25 51 -7 40 10 -6 10 -4 -1 9 -12 16 -8 22 12 18 5 -1
6 3 2 9 -3 5 -11 10 -17 10 -14 0 -68 40 -68 51 0 12 47 12 55 -1 3 -5 11 -10
17 -10 5 0 0 8 -12 18 -19 16 -21 22 -11 40 6 12 17 22 23 22 6 0 3 -10 -8
-22 -19 -23 -19 -23 2 -5 11 9 25 14 30 10 5 -5 -2 5 -16 22 -14 16 -29 32
-33 36 -4 3 -5 14 -1 25 5 16 4 16 -5 4 -6 -8 -11 -10 -11 -4 0 6 -6 11 -12
11 -26 1 -43 9 -60 26 -11 12 -33 20 -57 20 -23 1 -41 4 -41 7 0 3 -28 6 -62
6 -34 1 -64 6 -66 12 -2 6 -10 8 -18 5 -10 -4 -15 0 -14 8 5 33 -1 37 -42 33
-110 -10 -103 -11 -101 14 3 20 0 21 -17 12 -11 -6 -20 -8 -20 -4 0 3 -6 1
-13 -5 -8 -6 -17 -8 -20 -4 -20 19 -372 20 -360 0 7 -11 -21 -4 -29 8 -5 6
-11 5 -16 -3 -5 -7 -22 -14 -38 -16 -16 -1 -28 -8 -26 -14 3 -16 -3 -15 -22 3
-13 13 -15 13 -21 -5 -3 -11 -11 -20 -16 -20 -6 0 -7 -4 -4 -10 3 -5 2 -10 -4
-10 -5 0 -12 6 -14 13 -4 8 -6 7 -7 -3 -1 -16 -34 -60 -44 -60 -3 0 -6 7 -6
15 0 8 5 15 10 15 6 0 10 7 10 15 0 8 5 15 10 15 6 0 9 6 8 13 -2 6 3 11 10 9
8 -1 11 2 7 8 -3 5 1 10 9 10 9 0 16 4 16 8 0 5 -7 9 -15 9 -8 0 -15 -4 -15
-8 0 -4 -9 -11 -20 -14 -11 -4 -18 -11 -15 -16 3 -5 -1 -6 -9 -3 -9 3 -14 9
-11 13 2 4 -2 8 -10 8 -8 0 -12 -4 -9 -8 2 -4 -1 -11 -7 -15 -8 -4 -9 -3 -5 4
4 7 2 12 -5 12 -9 0 -9 4 2 13 8 6 13 11 11 10 -2 -1 -10 4 -17 10 -9 8 -10
16 -3 25 15 18 5 15 -18 -6z m66 -81 c0 -5 -3 -11 -7 -13 -5 -1 -16 -21 -26
-42 -14 -30 -21 -36 -30 -27 -8 8 -8 14 -2 19 6 4 10 14 10 22 0 8 5 14 12 13
8 -2 10 4 6 14 -4 11 -3 14 5 9 7 -4 12 -2 12 3 0 6 5 11 10 11 6 0 10 -4 10
-9z m1180 -143 c0 -5 -13 -7 -29 -6 -16 1 -28 5 -26 8 6 9 55 7 55 -2z"/>
<path d="M1873 4775 c0 -8 4 -12 9 -9 4 3 8 9 8 15 0 5 -4 9 -8 9 -5 0 -9 -7
-9 -15z"/>
<path d="M1646 4333 c-6 -14 -5 -15 5 -6 7 7 10 15 7 18 -3 3 -9 -2 -12 -12z"/>
</g>
</svg>
